<svg width="62" height="47" viewBox="0 0 62 47" fill="none" xmlns="http://www.w3.org/2000/svg">
<path d="M0 21.2411L4.05327 42.3238C9.00726 41.5048 21.3472 41.2934 31.0751 47C34.8781 44.7544 45.5617 40.6752 57.8717 42.3238L62 21.2411C59.779 21.4598 56.9463 22.0053 53.8935 22.973C44.9406 25.811 34.0941 32.2796 31.2285 44.7808C31.1745 45.0164 31.1233 45.2542 31.0751 45.4941C31.0377 45.2639 30.9935 45.0259 30.9424 44.7808C29.598 38.3371 23.4184 26.9434 8.03148 22.6821C5.59163 22.0064 2.92028 21.51 0 21.2411Z" fill="url(#paint0_linear_68_17209)"/>
<path d="M30.9424 44.7808C31.3619 37.6476 27.4872 22.6361 8.63196 19.656C8.95722 20.326 9.29249 21.8692 8.03148 22.6821C23.4184 26.9434 29.598 38.3371 30.9424 44.7808Z" fill="url(#paint1_linear_68_17209)"/>
<path d="M53.0678 19.656C35.6538 21.8118 31.2524 37.3041 31.2285 44.7808C34.0941 32.2796 44.9406 25.811 53.8935 22.973C52.5124 21.8223 52.7676 20.2822 53.0678 19.656Z" fill="url(#paint2_linear_68_17209)"/>
<path d="M14.4116 15.2175C14.4116 15.3796 14.3988 15.5384 14.3743 15.6931C14.3391 15.9141 14.28 16.1265 14.1997 16.3272C13.7897 17.3518 12.8291 18.0708 11.7094 18.0708C10.2171 18.0708 9.00726 16.7934 9.00726 15.2175C9.00726 13.6417 10.2171 12.3642 11.7094 12.3642C12.6024 12.3642 13.3942 12.8216 13.8862 13.5266C14.0578 13.7725 14.1929 14.0485 14.2832 14.3457C14.3666 14.6205 14.4116 14.9135 14.4116 15.2175Z" fill="url(#paint3_linear_68_17209)"/>
<path d="M25.3705 8.8769C25.3705 9.18096 25.3254 9.47392 25.242 9.74874C25.1654 10.0012 25.0563 10.2383 24.9201 10.4547C24.436 11.2235 23.6082 11.7302 22.6683 11.7302C21.7284 11.7302 20.9006 11.2235 20.4165 10.4547C20.2521 10.1936 20.1273 9.90222 20.0512 9.59022C19.9957 9.36223 19.9661 9.12321 19.9661 8.8769C19.9661 7.30107 21.1759 6.02361 22.6683 6.02361C23.3604 6.02361 23.9917 6.29834 24.4697 6.75014C24.6758 6.94491 24.8534 7.17259 24.9952 7.42536C25.2336 7.85061 25.3705 8.34688 25.3705 8.8769Z" fill="url(#paint4_linear_68_17209)"/>
<path d="M33.7772 2.85329C33.7772 3.0996 33.7477 3.33862 33.6921 3.56661C33.3921 4.79725 32.3342 5.70658 31.0751 5.70658C30.2262 5.70658 29.4688 5.29327 28.9734 4.64685C28.7821 4.39731 28.63 4.11303 28.5266 3.80438C28.4271 3.5069 28.3729 3.18678 28.3729 2.85329C28.3729 1.27746 29.5827 0 31.0751 0C32.5674 0 33.7772 1.27746 33.7772 2.85329Z" fill="url(#paint5_linear_68_17209)"/>
<path d="M42.0339 8.55986C42.0339 9.01539 41.9328 9.44598 41.753 9.82799C41.6472 10.0528 41.5141 10.2608 41.3584 10.4472C40.8632 11.0395 40.1388 11.4132 39.3317 11.4132C38.4829 11.4132 37.7254 10.9998 37.23 10.3534C37.089 10.1694 36.9692 9.96642 36.8746 9.74874C36.7172 9.38682 36.6295 8.98416 36.6295 8.55986C36.6295 7.70766 36.9834 6.94272 37.5443 6.4199C38.0207 5.97595 38.6464 5.70658 39.3317 5.70658C40.8241 5.70658 42.0339 6.98404 42.0339 8.55986Z" fill="url(#paint6_linear_68_17209)"/>
<path d="M52.9927 15.2175C52.9927 16.7934 51.7829 18.0708 50.2906 18.0708C49.2 18.0708 48.2603 17.3887 47.8334 16.4064C47.7158 16.1359 47.6371 15.8426 47.6049 15.5346C47.594 15.4305 47.5884 15.3247 47.5884 15.2175C47.5884 14.8542 47.6527 14.5068 47.7699 14.1872C47.842 13.9908 48.0044 13.6464 48.1138 13.4739C48.5985 12.7092 49.3537 12.3642 50.2906 12.3642C51.7829 12.3642 52.9927 13.6417 52.9927 15.2175Z" fill="url(#paint7_linear_68_17209)"/>
<path d="M42.0339 20.1315C42.0339 21.7074 40.8241 22.9848 39.3317 22.9848C38.4276 22.9848 37.6272 22.516 37.1367 21.796C37.0042 21.6015 36.8943 21.3887 36.8111 21.1619C36.6938 20.8423 36.6295 20.4948 36.6295 20.1315C36.6295 19.4749 36.8396 18.87 37.1927 18.3879C37.3338 18.1951 37.4978 18.0219 37.6804 17.8729C38.137 17.5001 38.7099 17.2782 39.3317 17.2782C40.0989 17.2782 40.7914 17.6158 41.2833 18.158C41.4619 18.3549 41.614 18.5787 41.7337 18.8231C41.9255 19.215 42.0339 19.6599 42.0339 20.1315Z" fill="url(#paint8_linear_68_17209)"/>
<path d="M33.7772 26.6307C33.7772 28.2065 32.5674 29.484 31.0751 29.484C29.5827 29.484 28.3729 28.2065 28.3729 26.6307C28.3729 26.0473 28.5387 25.5048 28.8232 25.0529C28.9319 24.8804 29.0579 24.721 29.1985 24.5776C29.6846 24.0822 30.3461 23.7774 31.0751 23.7774C31.6745 23.7774 32.2283 23.9835 32.6765 24.3322C32.863 24.4773 33.0312 24.6472 33.1768 24.8371C33.5523 25.3272 33.7772 25.9512 33.7772 26.6307Z" fill="url(#paint9_linear_68_17209)"/>
<path d="M25.3705 20.1315C25.3705 20.4948 25.3062 20.8423 25.1889 21.1619C25.1057 21.3887 24.9958 21.6015 24.8633 21.796C24.3728 22.516 23.5724 22.9848 22.6683 22.9848C21.1759 22.9848 19.9661 21.7074 19.9661 20.1315C19.9661 19.5732 20.118 19.0522 20.3805 18.6124C20.4989 18.414 20.6397 18.2322 20.7993 18.0708C21.2846 17.5799 21.9431 17.2782 22.6683 17.2782C23.3247 17.2782 23.9265 17.5254 24.3947 17.9364C24.5473 18.0704 24.6858 18.2219 24.8073 18.3879C25.1604 18.87 25.3705 19.4749 25.3705 20.1315Z" fill="url(#paint10_linear_68_17209)"/>
<path d="M33.7772 14.5835C33.7772 14.917 33.7231 15.2371 33.6235 15.5346C33.558 15.7302 33.4729 15.916 33.3707 16.0894C32.8937 16.8983 32.0439 17.4368 31.0751 17.4368C30.0141 17.4368 29.0959 16.7911 28.6538 15.8516C28.5489 15.6288 28.4708 15.3895 28.4239 15.1383C28.3904 14.9588 28.3729 14.7733 28.3729 14.5835C28.3729 14.0307 28.5217 13.5147 28.7794 13.0776C28.8976 12.8772 29.0385 12.6935 29.1985 12.5304C29.6846 12.035 30.3461 11.7302 31.0751 11.7302C31.7315 11.7302 32.3333 11.9773 32.8015 12.3883C32.9541 12.5224 33.0926 12.6738 33.2141 12.8398C33.5672 13.322 33.7772 13.9268 33.7772 14.5835Z" fill="url(#paint11_linear_68_17209)"/>
<path d="M20.0512 9.59022L13.8862 13.5266C14.0578 13.7725 14.1929 14.0485 14.2832 14.3457L20.4165 10.4547C20.2521 10.1936 20.1273 9.90222 20.0512 9.59022Z" fill="url(#paint12_linear_68_17209)"/>
<path d="M28.5266 3.80438L24.4697 6.75014C24.6758 6.94491 24.8534 7.17259 24.9952 7.42536L28.9734 4.64685C28.7821 4.39731 28.63 4.11303 28.5266 3.80438Z" fill="url(#paint13_linear_68_17209)"/>
<path d="M33.3567 4.3827L36.991 7.13322C37.1381 6.86472 37.3255 6.62388 37.5443 6.4199L33.6921 3.56661C33.6207 3.85948 33.5064 4.13415 33.3567 4.3827Z" fill="url(#paint14_linear_68_17209)"/>
<path d="M41.3584 10.4472L47.7699 14.1872C47.842 13.9908 48.0044 13.6464 48.1138 13.4739L41.753 9.82799C41.6472 10.0528 41.5141 10.2608 41.3584 10.4472Z" fill="url(#paint15_linear_68_17209)"/>
<path d="M24.9201 10.4547L28.7794 13.0776C28.8976 12.8772 29.0385 12.6935 29.1985 12.5304L25.242 9.74874C25.1654 10.0012 25.0563 10.2383 24.9201 10.4547Z" fill="url(#paint16_linear_68_17209)"/>
<path d="M28.4239 15.1383L24.3947 17.9364C24.5473 18.0704 24.6858 18.2219 24.8073 18.3879L28.6538 15.8516C28.5489 15.6288 28.4708 15.3895 28.4239 15.1383Z" fill="url(#paint17_linear_68_17209)"/>
<path d="M37.6804 17.8729L33.6235 15.5346C33.558 15.7302 33.4729 15.916 33.3707 16.0894L37.1927 18.3879C37.3338 18.1951 37.4978 18.0219 37.6804 17.8729Z" fill="url(#paint18_linear_68_17209)"/>
<path d="M36.8746 9.74874L32.8015 12.3883C32.9541 12.5224 33.0926 12.6738 33.2141 12.8398L37.23 10.3534C37.089 10.1694 36.9692 9.96642 36.8746 9.74874Z" fill="url(#paint19_linear_68_17209)"/>
<path d="M20.3805 18.6124C20.4989 18.414 20.6397 18.2322 20.7993 18.0708L14.3743 15.6931C14.3391 15.9141 14.28 16.1265 14.1997 16.3272L20.3805 18.6124Z" fill="url(#paint20_linear_68_17209)"/>
<path d="M47.6049 15.5346C46.0568 15.7882 42.7455 17.3892 41.2833 18.158C41.4619 18.3549 41.614 18.5787 41.7337 18.8231C43.7753 17.6495 46.6508 16.723 47.8334 16.4064C47.7158 16.1359 47.6371 15.8426 47.6049 15.5346Z" fill="url(#paint21_linear_68_17209)"/>
<path d="M36.8111 21.1619L32.6765 24.3322C32.863 24.4773 33.0312 24.6472 33.1768 24.8371L37.1367 21.796C37.0042 21.6015 36.8943 21.3887 36.8111 21.1619Z" fill="url(#paint22_linear_68_17209)"/>
<path d="M24.8633 21.796L28.8232 25.0529C28.9319 24.8804 29.0579 24.721 29.1985 24.5776L25.1889 21.1619C25.1057 21.3887 24.9958 21.6015 24.8633 21.796Z" fill="url(#paint23_linear_68_17209)"/>
<defs>
<linearGradient id="paint0_linear_68_17209" x1="0.0750605" y1="2.86087" x2="62.0003" y2="2.77816" gradientUnits="userSpaceOnUse">
<stop stop-color="#3051B9"/>
<stop offset="0.5" stop-color="#5276E6"/>
<stop offset="1" stop-color="#3051B9"/>
</linearGradient>
<linearGradient id="paint1_linear_68_17209" x1="31" y1="0" x2="31" y2="47" gradientUnits="userSpaceOnUse">
<stop stop-color="#91A6F0"/>
<stop offset="0.211538" stop-color="#A0B1F2"/>
<stop offset="1" stop-color="#DADCFA"/>
</linearGradient>
<linearGradient id="paint2_linear_68_17209" x1="31" y1="0" x2="31" y2="47" gradientUnits="userSpaceOnUse">
<stop stop-color="#91A6F0"/>
<stop offset="0.211538" stop-color="#A0B1F2"/>
<stop offset="1" stop-color="#DADCFA"/>
</linearGradient>
<linearGradient id="paint3_linear_68_17209" x1="31" y1="0" x2="31" y2="29.484" gradientUnits="userSpaceOnUse">
<stop stop-color="#4F74E6"/>
<stop offset="1" stop-color="#E2E2FB"/>
</linearGradient>
<linearGradient id="paint4_linear_68_17209" x1="31" y1="0" x2="31" y2="29.484" gradientUnits="userSpaceOnUse">
<stop stop-color="#4F74E6"/>
<stop offset="1" stop-color="#E2E2FB"/>
</linearGradient>
<linearGradient id="paint5_linear_68_17209" x1="31" y1="0" x2="31" y2="29.484" gradientUnits="userSpaceOnUse">
<stop stop-color="#4F74E6"/>
<stop offset="1" stop-color="#E2E2FB"/>
</linearGradient>
<linearGradient id="paint6_linear_68_17209" x1="31" y1="0" x2="31" y2="29.484" gradientUnits="userSpaceOnUse">
<stop stop-color="#4F74E6"/>
<stop offset="1" stop-color="#E2E2FB"/>
</linearGradient>
<linearGradient id="paint7_linear_68_17209" x1="31" y1="0" x2="31" y2="29.484" gradientUnits="userSpaceOnUse">
<stop stop-color="#4F74E6"/>
<stop offset="1" stop-color="#E2E2FB"/>
</linearGradient>
<linearGradient id="paint8_linear_68_17209" x1="31" y1="0" x2="31" y2="29.484" gradientUnits="userSpaceOnUse">
<stop stop-color="#4F74E6"/>
<stop offset="1" stop-color="#E2E2FB"/>
</linearGradient>
<linearGradient id="paint9_linear_68_17209" x1="31" y1="0" x2="31" y2="29.484" gradientUnits="userSpaceOnUse">
<stop stop-color="#4F74E6"/>
<stop offset="1" stop-color="#E2E2FB"/>
</linearGradient>
<linearGradient id="paint10_linear_68_17209" x1="31" y1="0" x2="31" y2="29.484" gradientUnits="userSpaceOnUse">
<stop stop-color="#4F74E6"/>
<stop offset="1" stop-color="#E2E2FB"/>
</linearGradient>
<linearGradient id="paint11_linear_68_17209" x1="31" y1="0" x2="31" y2="29.484" gradientUnits="userSpaceOnUse">
<stop stop-color="#4F74E6"/>
<stop offset="1" stop-color="#E2E2FB"/>
</linearGradient>
<linearGradient id="paint12_linear_68_17209" x1="31" y1="0" x2="31" y2="29.484" gradientUnits="userSpaceOnUse">
<stop stop-color="#4F74E6"/>
<stop offset="1" stop-color="#E2E2FB"/>
</linearGradient>
<linearGradient id="paint13_linear_68_17209" x1="31" y1="0" x2="31" y2="29.484" gradientUnits="userSpaceOnUse">
<stop stop-color="#4F74E6"/>
<stop offset="1" stop-color="#E2E2FB"/>
</linearGradient>
<linearGradient id="paint14_linear_68_17209" x1="31" y1="0" x2="31" y2="29.484" gradientUnits="userSpaceOnUse">
<stop stop-color="#4F74E6"/>
<stop offset="1" stop-color="#E2E2FB"/>
</linearGradient>
<linearGradient id="paint15_linear_68_17209" x1="31" y1="0" x2="31" y2="29.484" gradientUnits="userSpaceOnUse">
<stop stop-color="#4F74E6"/>
<stop offset="1" stop-color="#E2E2FB"/>
</linearGradient>
<linearGradient id="paint16_linear_68_17209" x1="31" y1="0" x2="31" y2="29.484" gradientUnits="userSpaceOnUse">
<stop stop-color="#4F74E6"/>
<stop offset="1" stop-color="#E2E2FB"/>
</linearGradient>
<linearGradient id="paint17_linear_68_17209" x1="31" y1="0" x2="31" y2="29.484" gradientUnits="userSpaceOnUse">
<stop stop-color="#4F74E6"/>
<stop offset="1" stop-color="#E2E2FB"/>
</linearGradient>
<linearGradient id="paint18_linear_68_17209" x1="31" y1="0" x2="31" y2="29.484" gradientUnits="userSpaceOnUse">
<stop stop-color="#4F74E6"/>
<stop offset="1" stop-color="#E2E2FB"/>
</linearGradient>
<linearGradient id="paint19_linear_68_17209" x1="31" y1="0" x2="31" y2="29.484" gradientUnits="userSpaceOnUse">
<stop stop-color="#4F74E6"/>
<stop offset="1" stop-color="#E2E2FB"/>
</linearGradient>
<linearGradient id="paint20_linear_68_17209" x1="31" y1="0" x2="31" y2="29.484" gradientUnits="userSpaceOnUse">
<stop stop-color="#4F74E6"/>
<stop offset="1" stop-color="#E2E2FB"/>
</linearGradient>
<linearGradient id="paint21_linear_68_17209" x1="31" y1="0" x2="31" y2="29.484" gradientUnits="userSpaceOnUse">
<stop stop-color="#4F74E6"/>
<stop offset="1" stop-color="#E2E2FB"/>
</linearGradient>
<linearGradient id="paint22_linear_68_17209" x1="31" y1="0" x2="31" y2="29.484" gradientUnits="userSpaceOnUse">
<stop stop-color="#4F74E6"/>
<stop offset="1" stop-color="#E2E2FB"/>
</linearGradient>
<linearGradient id="paint23_linear_68_17209" x1="31" y1="0" x2="31" y2="29.484" gradientUnits="userSpaceOnUse">
<stop stop-color="#4F74E6"/>
<stop offset="1" stop-color="#E2E2FB"/>
</linearGradient>
</defs>
</svg>
