<svg width="51" height="67" viewBox="0 0 51 67" fill="none" xmlns="http://www.w3.org/2000/svg">
<g filter="url(#filter0_d_2_28666)">
<path d="M19.5977 37.7627L26.0078 41.4636L12.9908 64.0096L9.25467 55.6772L19.5977 37.7627Z" fill="#418ED6"/>
<path d="M19.5977 37.7627L13.1875 34.0618L0.170482 56.6078L9.25467 55.6772L19.5977 37.7627Z" fill="#2B63A6"/>
<path d="M28.7461 37.7627L22.3359 41.4636L35.3529 64.0096L39.0891 55.6772L28.7461 37.7627Z" fill="#2B63A6"/>
<path d="M28.7461 37.7627L35.1563 34.0618L48.1733 56.6078L39.0891 55.6772L28.7461 37.7627Z" fill="#418ED6"/>
<ellipse cx="24.1627" cy="22.2388" rx="22.069" ry="22.0689" fill="#E3E3E3"/>
<ellipse cx="24.1604" cy="22.2402" rx="17.2268" ry="17.2268" fill="#595959"/>
<mask id="mask0_2_28666" style="mask-type:alpha" maskUnits="userSpaceOnUse" x="7" y="6" width="36" height="36">
<ellipse cx="25.0794" cy="24.0779" rx="17.2669" ry="17.2669" fill="#C28B37"/>
</mask>
<g mask="url(#mask0_2_28666)">
<ellipse cx="24.1615" cy="22.239" rx="17.2669" ry="17.2669" fill="url(#paint0_linear_2_28666)"/>
</g>
<path d="M25.5625 10.2273L29.2956 17.6767L36.7618 18.6079L31.635 24.3439L33.0287 32.5755L25.5625 28.8508L18.0964 32.5755L19.5025 24.3439L14.3633 18.6079L21.8295 17.6767L25.5625 10.2273Z" fill="url(#paint1_linear_2_28666)"/>
</g>
<defs>
<filter id="filter0_d_2_28666" x="0.00194013" y="-1.29938e-05" width="50.719" height="66.5586" filterUnits="userSpaceOnUse" color-interpolation-filters="sRGB">
<feFlood flood-opacity="0" result="BackgroundImageFix"/>
<feColorMatrix in="SourceAlpha" type="matrix" values="0 0 0 0 0 0 0 0 0 0 0 0 0 0 0 0 0 0 127 0" result="hardAlpha"/>
<feOffset dx="1.18954" dy="1.18954"/>
<feGaussianBlur stdDeviation="0.67974"/>
<feComposite in2="hardAlpha" operator="out"/>
<feColorMatrix type="matrix" values="0 0 0 0 0 0 0 0 0 0 0 0 0 0 0 0 0 0 0.3 0"/>
<feBlend mode="normal" in2="BackgroundImageFix" result="effect1_dropShadow_2_28666"/>
<feBlend mode="normal" in="SourceGraphic" in2="effect1_dropShadow_2_28666" result="shape"/>
</filter>
<linearGradient id="paint0_linear_2_28666" x1="24.1615" y1="4.97217" x2="24.1615" y2="39.5059" gradientUnits="userSpaceOnUse">
<stop stop-color="#9CA1A3"/>
<stop offset="1" stop-color="#9CA1A3" stop-opacity="0"/>
</linearGradient>
<linearGradient id="paint1_linear_2_28666" x1="25.5625" y1="10.2273" x2="25.5625" y2="32.5755" gradientUnits="userSpaceOnUse">
<stop stop-color="#F1F5F5"/>
<stop offset="0.0001" stop-color="white"/>
<stop offset="1" stop-color="#F1F5F5"/>
</linearGradient>
</defs>
</svg>
